<?xml version="1.0" encoding="UTF-8" standalone="no"?><svg xmlns="http://www.w3.org/2000/svg" width="26" height="16" viewBox="0 0 26 16" fill="none" role="img" aria-label="Twoje Linie Kolejowe"><path d="M24.4632 2.47091C23.4513 0.906 21.5216 0.423584 20.1685 0.200026C19.4037 0.0705974 18.5801 0 17.7329 0C16.3445 0 14.8855 0.176493 13.25 0.52948C10.7791 1.05896 8.39052 1.97673 6.15494 3.27101C4.03702 4.48293 2.46034 5.82428 1.31902 7.36566C0.165928 8.93057 -0.234124 10.4013 0.130629 11.7545C0.47185 13.0605 1.63671 14.0606 3.50754 14.649C4.61356 14.9902 5.80195 15.1667 7.16683 15.1667C8.02577 15.1667 8.94353 15.0961 9.95543 14.9549C11.1085 14.7901 12.2969 14.5313 13.4853 14.1901C13.9324 14.0606 14.3678 13.7194 14.6149 13.2958C14.7443 13.0723 14.7678 12.8487 14.6737 12.684C14.5913 12.5546 14.4501 12.4722 14.2854 12.4722C14.2266 12.4722 14.156 12.484 14.0854 12.5075C12.0498 13.1076 10.0966 13.4135 8.29639 13.4135C7.86104 13.4135 7.43746 13.4017 7.01387 13.3664C4.91948 13.2017 3.47224 12.6252 2.578 11.625C1.80143 10.7543 1.71907 9.47181 2.34268 8.27166C2.69567 7.58922 3.17808 7.01267 3.70756 6.50672H4.97831C5.01361 6.50672 5.03715 6.51849 5.04891 6.53026C5.06068 6.54202 5.06068 6.57732 5.06068 6.60085L4.09585 11.1191C4.06055 11.2838 4.09585 11.4603 4.20174 11.578C4.30764 11.7074 4.4606 11.778 4.63709 11.778H5.2607C5.59016 11.778 5.89608 11.5309 5.95491 11.2132L6.91974 6.69498C6.94327 6.58909 7.06094 6.49496 7.16683 6.49496H8.47289C8.64938 6.49496 8.82587 6.41259 8.96707 6.29493L8.41405 8.89527C8.22579 9.7895 8.1905 10.4249 8.62585 11.0014C9.14356 11.7074 9.84953 11.7662 10.7908 11.7662H12.1086C12.344 11.7662 12.5793 11.6368 12.7087 11.4368C12.7323 11.4838 12.7558 11.5309 12.7793 11.5662C12.8852 11.6956 13.0382 11.7662 13.2147 11.7662H13.7795C14.1089 11.7662 14.4148 11.5191 14.4737 11.2014L15.0149 8.67171L16.4033 11.2956C16.5445 11.5662 16.874 11.7662 17.1799 11.7662H18.133C18.3212 11.7662 18.4742 11.6839 18.5565 11.5544C18.6389 11.4132 18.6271 11.2485 18.533 11.0838L17.0152 8.48345C16.9563 8.38932 16.9799 8.23636 17.0622 8.16576L19.7567 5.57719C19.9685 5.37717 19.9214 5.20067 19.8979 5.13008C19.8744 5.05948 19.7802 4.90652 19.4861 4.90652H18.6389C18.3683 4.90652 18.0035 5.04771 17.8035 5.23597L15.2385 7.70688L15.6973 5.56543C15.7326 5.4007 15.6973 5.22421 15.5915 5.10654C15.4856 4.97711 15.3326 4.90652 15.1561 4.90652H14.5913C14.2619 4.90652 13.9559 5.15361 13.8971 5.4713L12.8264 10.5072C12.8146 10.4837 12.8029 10.4719 12.7911 10.4484C12.6852 10.319 12.5322 10.2484 12.3557 10.2484H11.1321C10.5673 10.2484 10.3202 10.166 10.1672 9.9307C10.0966 9.81303 10.1084 9.49535 10.1437 9.31885C10.1908 9.10706 10.2614 8.76584 10.2966 8.56581L10.9438 5.56543C10.9791 5.4007 10.9438 5.22421 10.8379 5.10654C10.732 4.97711 10.579 4.90652 10.4025 4.90652H9.826C9.57891 4.90652 9.34359 5.04771 9.21416 5.2595C9.19063 5.21244 9.16709 5.15361 9.13179 5.11831C9.0259 4.98888 8.87294 4.91828 8.69644 4.91828H5.83725C5.90785 4.88298 5.96668 4.83592 6.03728 4.80062C7.79044 3.72989 9.84953 2.90626 12.1675 2.34148C13.7324 1.96496 15.2502 1.76493 16.6857 1.76493C17.2976 1.76493 17.9094 1.80023 18.4859 1.87083C20.3332 2.09439 21.6275 2.6474 22.4394 3.56517C22.8512 4.03582 23.0865 4.62413 23.1101 5.27127C23.1454 6.48319 22.3335 7.54215 21.7217 8.23636C21.6158 8.35402 21.3687 8.74231 21.4981 9.0247C21.5334 9.09529 21.6275 9.24825 21.8982 9.24825H21.9099C22.2982 9.24825 22.6865 9.00116 23.1218 8.51875C24.0161 7.48332 25.9928 4.81239 24.4632 2.47091Z" fill="white"/><path d="M3.24857 6.28372C3.14268 6.15429 3.10738 5.98956 3.14268 5.82484L3.17798 5.67188C2.56613 6.22489 2.00135 6.83673 1.50717 7.50741C0.648237 8.6605 -0.0577362 10.1548 0.354082 11.6962C0.7659 13.2611 2.34257 14.0377 3.57803 14.4259C4.74288 14.7907 5.95481 14.9319 7.16673 14.9319C8.09626 14.9319 9.02579 14.8495 9.93179 14.7201C11.1084 14.5554 12.2733 14.2965 13.4264 13.9553C13.8029 13.8494 14.2029 13.5435 14.4265 13.167C14.5794 12.9081 14.5089 12.6963 14.2971 12.6963C14.2618 12.6963 14.2147 12.7081 14.1676 12.7198C12.2497 13.2846 10.2848 13.6258 8.30805 13.6258C7.8727 13.6258 7.43735 13.6141 7.002 13.5788C5.44886 13.4494 3.57803 13.0728 2.41317 11.755C1.51894 10.7431 1.5307 9.33117 2.15431 8.14278C2.49553 7.48387 2.94265 6.93086 3.4486 6.42491C3.36624 6.40138 3.3074 6.35432 3.24857 6.28372Z" fill="#ACADAE"/><path d="M24.2748 2.59939C23.3453 1.17567 21.5803 0.669725 20.1331 0.422635C19.3447 0.293206 18.5329 0.234375 17.7328 0.234375C16.2502 0.234375 14.7559 0.434401 13.2969 0.752089C10.8613 1.28157 8.48451 2.19933 6.26069 3.47009C5.51942 3.89367 4.78991 4.36432 4.0957 4.90557H5.38999C5.55472 4.79967 5.73121 4.69377 5.89594 4.58788C7.83736 3.39949 9.95528 2.62292 12.0967 2.09344C13.591 1.72869 15.1324 1.51689 16.6738 1.51689C17.2856 1.51689 17.8975 1.55219 18.5093 1.62279C19.9213 1.78752 21.5568 2.2111 22.604 3.39949C23.0511 3.90544 23.3099 4.54081 23.3217 5.25855C23.357 6.50577 22.5922 7.5765 21.8745 8.38837C21.7333 8.5531 21.498 9.02375 21.8745 9.02375C22.2628 9.02375 22.6393 8.68252 22.9099 8.3766C24.2042 6.92936 25.5573 4.56435 24.2748 2.59939Z" fill="#ACADAE"/><path d="M7.16693 6.24856C6.95514 6.24856 6.74335 6.42505 6.69629 6.62508L5.73146 11.1433C5.68439 11.3551 5.4726 11.5198 5.26081 11.5198H4.6372C4.4254 11.5198 4.28421 11.3433 4.33127 11.1433L5.2961 6.63684C5.34317 6.42505 5.20198 6.26032 4.99018 6.26032H3.68413C3.47234 6.26032 3.33114 6.0956 3.37821 5.8838L3.44881 5.53082C3.49587 5.31902 3.70766 5.1543 3.91946 5.1543H8.70831C8.9201 5.1543 9.0613 5.33079 9.01423 5.53082L8.94363 5.8838C8.89657 6.0956 8.68478 6.26032 8.47299 6.26032H7.16693V6.24856Z" fill="#F2652B"/><path d="M10.7909 11.5317C9.86136 11.5317 9.24951 11.4729 8.81416 10.861C8.42588 10.3433 8.46118 9.77852 8.63767 8.93135L9.36717 5.50738C9.41424 5.29559 9.62603 5.13086 9.83782 5.13086H10.4144C10.6262 5.13086 10.7674 5.30735 10.7203 5.50738L10.0731 8.50777C10.0261 8.71956 9.95549 9.06078 9.92019 9.27257C9.92019 9.27257 9.81429 9.80205 9.97902 10.0491C10.1908 10.3904 10.5673 10.4727 11.1321 10.4727H12.3323C12.5441 10.4727 12.6853 10.6492 12.6382 10.8492L12.5794 11.1552C12.5323 11.367 12.3205 11.5317 12.1087 11.5317H10.7909Z" fill="#322F90"/><path d="M14.5911 5.13086C14.3793 5.13086 14.1675 5.30735 14.1204 5.50738L12.9085 11.1552C12.8614 11.367 13.0026 11.5317 13.2144 11.5317H13.7792C13.991 11.5317 14.2028 11.3552 14.2498 11.1552L15.4618 5.50738C15.5088 5.29559 15.3676 5.13086 15.1558 5.13086H14.5911Z" fill="#F2652B"/><path d="M15.2267 8.55483C15.1326 8.36657 15.1679 8.08418 15.3209 7.94299L17.9565 5.40148C18.1095 5.24852 18.4154 5.13086 18.6272 5.13086H19.4743C19.6861 5.13086 19.7332 5.24852 19.5802 5.40148L16.8858 7.99005C16.7328 8.14301 16.6975 8.41364 16.8034 8.59013L18.3212 11.1905C18.4271 11.3787 18.3448 11.5317 18.133 11.5317H17.1799C16.9681 11.5317 16.7093 11.3787 16.6151 11.1905L15.2267 8.55483Z" fill="#F2652B"/></svg>